<svg xmlns="http://www.w3.org/2000/svg" xmlns:xlink="http://www.w3.org/1999/xlink" version="1.1" id="Layer_1" x="0px" y="0px" viewBox="0 0 100 100" enable-background="new 0 0 100 100" xml:space="preserve" height="100px" width="100px">
<path d="M95.6,52.8c0-6.1-3.8-11.7-10.2-15.9c-3.7-2.4-8.4-4.2-13.4-5.2V22c0-1.6-0.6-3-2.2-3H7.3C5.7,19,4,20.5,4,22V57  c0,1.6,1.7,2,3.3,2h2.6l-3.5,8.9c-0.5,1.1-0.2,2.7,0.8,3.5c0.5,0.4,1.2,0.8,1.8,0.8c0.5,0,1-0.5,1.5-0.8L29.9,59h3.4  c1.6,4,4.4,6.8,8.2,9.2c6,3.9,13.8,6.3,22.1,6.3c2.6,0,5.3-0.1,7.8-0.5l12.7,6.4c0.4,0.2,0.8,0.3,1.3,0.3c0.6,0,1.2-0.2,1.7-0.5  c0.9-0.6,1.3-1.6,1.2-2.7l-1.3-9.6C92.5,63.8,95.6,58.5,95.6,52.8z M29.1,54c-0.5,0-1.1,0.2-1.5,0.5l-12.5,7.8l1.8-4.2  c0.4-0.9,0.3-1.9-0.3-2.7C16,54.5,15.1,54,14.2,54H10V25h57v5.9c-2-0.1-2.3-0.1-3.4-0.1c-8.3,0-16.2,2.2-22.2,6.1  c-6.3,4.2-9.8,9.7-9.8,15.8c0,0.4,0,1.3,0.1,1.3H29.1z M37.3,52.7c0-8.8,12-16.2,26.3-16.2c1.1,0,1.4,0.1,3.4,0.2V54H37.4  C37.4,54,37.3,53.2,37.3,52.7z M82.3,64.1c-0.9,0.6-1.4,1.7-1.3,2.8l0.8,6l-8.8-4.3c-0.4-0.2-0.8-0.3-1.3-0.3c-0.2,0-0.4,0-0.5,0.1  c-2.5,0.5-5.1,0.3-7.7,0.3c-10.2,0-19.2-3.6-23.5-9.6h29.8c1.6,0,2.2-0.5,2.2-2V37.6c11,2.3,17.5,8.3,17.5,15.2  C89.5,57,87.2,61,82.3,64.1z"/>
</svg>